<?xml version="1.0" standalone="no"?>
<!DOCTYPE svg PUBLIC "-//W3C//DTD SVG 20010904//EN"
 "http://www.w3.org/TR/2001/REC-SVG-20010904/DTD/svg10.dtd">
<svg version="1.0" xmlns="http://www.w3.org/2000/svg"
 width="133.000000pt" height="133.000000pt" viewBox="0 0 133.000000 133.000000"
 preserveAspectRatio="xMidYMid meet">
<metadata>
Created by potrace 1.14, written by Peter Selinger 2001-2017
</metadata>
<g transform="translate(0.000000,133.000000) scale(0.100000,-0.100000)"
fill="#000000" stroke="none">
<path d="M261 1145 c-23 -13 -39 -20 -36 -15 9 15 0 12 -23 -7 -58 -50 -67
-57 -69 -53 -2 3 -18 -16 -37 -42 -18 -26 -37 -44 -41 -40 -5 4 -5 2 -2 -4 4
-6 0 -20 -8 -30 -8 -10 -15 -27 -15 -36 0 -10 -4 -18 -9 -18 -6 0 -8 -9 -6
-20 2 -11 0 -20 -5 -20 -4 0 -6 -44 -4 -97 4 -119 6 -133 16 -133 4 0 8 -9 8
-21 0 -11 4 -17 10 -14 5 3 10 0 10 -7 0 -24 113 -128 139 -128 6 0 11 -4 11
-9 0 -5 16 -15 35 -21 19 -6 35 -16 35 -21 0 -5 9 -9 21 -9 11 0 17 -4 14 -10
-3 -6 1 -7 9 -4 9 3 16 1 16 -6 0 -6 4 -8 10 -5 6 3 10 1 10 -5 0 -6 5 -8 10
-5 6 3 10 1 10 -5 0 -6 4 -8 10 -5 5 3 10 2 10 -3 0 -4 16 -15 35 -22 20 -8
41 -20 47 -27 5 -7 14 -10 19 -7 5 3 9 1 9 -4 0 -9 53 -36 65 -32 4 1 12 -6
19 -16 7 -9 18 -14 24 -10 7 4 12 2 12 -5 0 -6 8 -9 20 -6 10 3 18 0 17 -5 -2
-11 20 -17 66 -20 15 0 27 -4 27 -8 0 -4 15 -6 33 -4 17 1 36 3 40 3 5 1 6 5
3 10 -3 4 6 6 19 3 24 -4 57 5 115 31 14 7 27 14 30 17 3 3 21 17 40 30 45 31
86 72 83 82 -2 4 2 7 8 5 6 -1 16 7 22 18 7 11 21 29 33 40 17 17 33 45 39 65
0 3 9 20 18 38 10 18 15 38 11 44 -4 6 -3 8 4 4 7 -4 13 16 17 56 7 75 3 158
-7 151 -7 -4 -12 12 -9 30 0 4 -4 7 -9 7 -6 0 -10 7 -10 15 0 8 -5 15 -11 15
-5 0 -7 5 -4 10 3 6 1 10 -5 10 -6 0 -16 11 -22 25 -6 14 -15 25 -20 25 -5 0
-20 10 -33 23 -42 38 -53 46 -59 40 -3 -4 -6 -1 -6 5 0 7 -6 12 -14 12 -8 0
-16 5 -18 11 -2 6 -15 12 -30 12 -14 1 -24 5 -21 10 4 7 -19 11 -44 8 -7 -1
-13 3 -13 10 0 6 -6 9 -14 6 -8 -3 -20 1 -27 9 -8 10 -15 11 -24 4 -6 -5 -15
-7 -18 -3 -7 7 -45 14 -89 16 -16 1 -28 5 -28 9 0 5 -13 8 -29 8 -17 0 -33 5
-36 10 -3 6 -16 10 -29 10 -12 0 -28 6 -35 13 -11 10 -12 9 -6 -3 6 -11 2 -10
-12 3 -11 10 -24 17 -29 16 -5 -1 -11 0 -14 1 -27 10 -59 14 -141 16 -85 2
-100 0 -138 -21z"/>
</g>
</svg>
